<svg id="Capa_1" enable-background="new 0 0 511.975 511.975" height="512" viewBox="0 0 511.975 511.975" width="512" xmlns="http://www.w3.org/2000/svg"><g clip-rule="evenodd" fill-rule="evenodd"><path d="m129.991 239.967c15.259-15.259 16.53-39.208 3.812-55.913-1.153-1.521-2.425-2.979-3.812-4.366-16.646-16.646-43.633-16.646-60.279 0s-16.646 43.633 0 60.279c2.264 2.264 4.72 4.218 7.311 5.863 9.479-1.056 19.244 1.062 27.574 6.355 9.277-1.032 18.28-5.104 25.394-12.218z" fill="#8481e2"/><ellipse cx="176.586" cy="253.652" fill="#8481e2" rx="42.624" ry="42.624" transform="matrix(.707 -.707 .707 .707 -127.639 199.158)"/><path d="m111.907 318.33c16.646-16.646 16.646-43.633 0-60.278-2.263-2.263-4.717-4.219-7.311-5.866-8.33-5.292-18.095-7.41-27.574-6.355-9.277 1.033-18.28 5.107-25.395 12.221-16.646 16.646-16.646 43.633 0 60.279 1.272 1.272 2.604 2.447 3.988 3.523 10.969 8.545 25.155 10.979 37.957 7.299 6.715-1.927 13.047-5.535 18.335-10.823z" fill="#8481e2"/><ellipse cx="154.104" cy="336.414" fill="#8481e2" rx="42.624" ry="42.624" transform="matrix(.707 -.707 .707 .707 -192.745 207.5)"/><path d="m97.563 392.954c16.646-16.646 16.646-43.633 0-60.279-1.272-1.272-2.605-2.446-3.989-3.523-12.801 3.68-26.988 1.247-37.957-7.299-6.712 1.928-13.045 5.534-18.333 10.822-16.646 16.646-16.646 43.634 0 60.279 1.373 1.373 2.816 2.633 4.321 3.777 10.689 8.162 24.355 10.585 36.813 7.27 7.013-1.863 13.644-5.546 19.145-11.047z" fill="#8481e2"/><path d="m82.739 407.779c-1.373-1.373-2.818-2.631-4.321-3.777-12.458 3.315-26.124.892-36.813-7.27-7.014 1.865-13.644 5.547-19.145 11.048-16.646 16.646-16.646 43.633 0 60.279s43.633 16.646 60.279 0c5.501-5.501 9.183-12.132 11.048-19.145-8.162-10.689-10.585-24.356-7.27-36.814-1.148-1.503-2.405-2.948-3.778-4.321z" fill="#8481e2"/><path d="m97.564 392.954c-5.501 5.501-9.184 12.131-11.048 19.145-3.315 12.458-.892 26.124 7.27 36.814 1.144 1.504 2.404 2.947 3.777 4.32 16.646 16.646 43.633 16.645 60.279 0 5.288-5.288 8.893-11.62 10.822-18.333-8.546-10.969-10.979-25.155-7.299-37.957-1.077-1.384-2.251-2.717-3.523-3.989-16.646-16.645-43.633-16.645-60.278 0z" fill="#8481e2"/><path d="m161.365 396.944c-3.68 12.802-1.247 26.988 7.299 37.957 1.076 1.384 2.251 2.716 3.523 3.988 16.646 16.646 43.633 16.646 60.279 0 7.114-7.114 11.185-16.116 12.218-25.394-5.292-8.33-7.41-18.095-6.352-27.57-1.648-2.594-3.601-5.05-5.866-7.314-16.646-16.646-43.633-16.646-60.278 0-5.288 5.288-8.897 11.62-10.823 18.333z" fill="#8481e2"/><path d="m238.329 385.921c-1.056 9.479 1.063 19.244 6.355 27.574 1.648 2.593 3.603 5.048 5.866 7.311 16.646 16.646 43.633 16.646 60.279 0s16.645-43.633 0-60.279c-.408-.408-.824-.803-1.244-1.191-5.887 12.55-16.455 24.652-25.29 30.902-11.916-12.32-21.408-23.583-28.63-34.08-1.789 1.301-3.501 2.756-5.114 4.369-7.115 7.114-11.188 16.117-12.222 25.394z" fill="#8481e2"/><path d="m206.726 344.071c12.682 12.682 31.365 15.699 46.905 9.058-20.076-30.639-20.395-54.828-4.935-80.152-14.423-4.152-30.606-.549-41.97 10.815-16.646 16.646-16.646 43.633 0 60.279z" fill="#8481e2"/><path d="m248.696 272.978c-15.459 25.324-15.14 49.513 4.935 80.152.657 1.002 1.335 2.012 2.034 3.028 7.222 10.498 16.714 21.76 28.63 34.08 8.836-6.25 19.404-18.352 25.291-30.902 2.121-4.521 3.635-9.101 4.241-13.486 0 0 28.294 49.682 67.722 65.2 12.298-27.414 17.045-54.373 6.93-73.924 0 0 59.531 7.036 113.497-20.604-32.915-50.92-87.989-74.593-87.989-74.593 18.536-11.874 27.905-37.595 30.961-67.485-41.905-6.275-91.249 22.604-91.249 22.604 6.295-15.483 2.776-39.834-3.382-53.206-21.582 6.17-38.657 12.848-51.852 20.432-35.469 20.385-42.903 47.309-34.483 88.479-6.126 6.908-11.245 13.605-15.286 20.225z" fill="#88df8e"/><path d="m206.726 283.792c11.364-11.364 27.547-14.967 41.97-10.815 4.041-6.62 9.16-13.316 15.286-20.226-8.42-41.17-.986-68.095 34.483-88.479 1.126-3.45 2.23-7.062 3.314-10.853-10.755-4.954-30.343-7.784-42.797-2.72 0 0 23.229-39.689 18.181-73.396-24.042 2.459-44.732 9.995-54.282 24.903 0 0-19.041-44.298-59.998-70.773-22.233 43.407-16.574 91.291-16.574 91.291-15.725-8.136-37.411-4.318-59.461 5.574 12.482 31.714 52.444 54.473 52.444 54.473-1.798.249-3.637.689-5.486 1.282 12.716 16.707 11.445 40.656-3.814 55.915-7.114 7.114-16.117 11.186-25.394 12.218 2.593 1.648 5.047 3.603 7.311 5.866 16.646 16.646 16.646 43.633 0 60.278-5.288 5.288-11.62 8.896-18.333 10.822 1.384 1.078 2.717 2.251 3.989 3.523 16.646 16.646 16.646 43.633.001 60.279 16.646-16.646 43.632-16.646 60.278 0 1.272 1.272 2.446 2.605 3.521 3.988 1.928-6.712 5.537-13.044 10.825-18.332 16.646-16.646 43.633-16.646 60.278 0 2.264 2.264 4.218 4.72 5.863 7.311 1.033-9.277 5.107-18.28 12.221-25.395 1.613-1.613 3.325-3.068 5.114-4.369-.699-1.016-1.377-2.026-2.034-3.028-15.541 6.641-34.224 3.624-46.905-9.058-16.647-16.646-16.647-43.633-.001-60.279zm-60.28-60.279c16.646-16.646 43.633-16.645 60.279 0s16.646 43.633 0 60.279-43.633 16.646-60.279 0c-16.645-16.646-16.646-43.633 0-60.279zm-22.482 82.762c16.646-16.646 43.633-16.646 60.28 0 16.646 16.646 16.645 43.633-.001 60.279s-43.632 16.646-60.278 0c-16.647-16.647-16.647-43.634-.001-60.279z" fill="#88df8e"/></g><path d="m510.373 311.092c-24.267-37.542-59.488-60.762-78.718-71.435 12.415-14.252 20.364-36.078 23.24-64.197.543-5.314-3.185-10.116-8.468-10.907-28.908-4.328-60.264 6.303-79.486 14.752.354-14.156-2.745-29.233-7.541-39.647-2.064-4.482-7.091-6.788-11.832-5.432-14.286 4.084-26.834 8.462-37.757 13.251-.973-1.317-2.273-2.414-3.849-3.14-7.814-3.599-18.84-6.146-29.718-6.314 6.644-15.83 14.152-39.871 10.809-62.2-.79-5.282-5.596-9.009-10.907-8.467-21.857 2.235-39.117 8.256-50.889 17.638-9.156-16.008-27.717-43.064-56.945-61.958-4.638-2.998-10.828-1.667-13.827 2.97-2.998 4.638-1.669 10.829 2.97 13.827 37.771 24.416 56.064 65.92 56.239 66.324 1.462 3.4 4.681 5.714 8.369 6.017 3.686.307 7.242-1.456 9.238-4.572 5.817-9.081 18.629-15.651 36.576-18.906-.511 27.406-17.34 56.633-17.526 56.953-2.163 3.696-1.732 8.36 1.071 11.598 2.805 3.238 7.36 4.331 11.325 2.717 6.345-2.578 16.202-2.383 24.698-.633-31.948 20.756-41.652 48.745-34.195 90.546-3.392 4.026-6.441 7.998-9.161 11.936-3.083-.426-6.175-.573-9.245-.453l-26.974-100.67c-1.429-5.335-6.915-8.503-12.247-7.071-5.335 1.429-8.501 6.913-7.071 12.247l10.804 40.321c-7.016-3.372-14.755-5.158-22.769-5.158-8.573 0-16.828 2.046-24.223 5.89-.354-6.455-1.889-12.854-4.603-18.848.64-1.023 1.106-2.169 1.345-3.403.813-4.202-1.142-8.458-4.856-10.583-.329-.188-29.518-17.087-43.663-40.566 17.169-6.154 31.55-6.87 41.127-1.915 4.905 2.537 10.938.62 13.478-4.286 2.538-4.905.619-10.939-4.286-13.477-17.094-8.846-40.659-7.001-68.149 5.331-4.874 2.186-7.169 7.816-5.213 12.787 3.713 9.434 9.497 18.067 15.977 25.663-11.294 1.358-22.23 6.346-30.879 14.994-18.724 18.724-20.351 48.16-4.898 68.76-4.752 2.435-9.212 5.629-13.186 9.603-18.396 18.396-20.285 47.129-5.695 67.664-3.106 2.01-6.017 4.328-8.649 6.96-18.432 18.432-20.294 47.242-5.61 67.785-3.317 2.087-6.421 4.524-9.215 7.319-20.518 20.518-20.517 53.903.001 74.421 9.939 9.94 23.154 15.414 37.211 15.414 14.056 0 27.271-5.474 37.21-15.413 2.792-2.793 5.229-5.895 7.315-9.209 8.864 6.357 19.454 9.798 30.578 9.798 14.057 0 27.271-5.474 37.211-15.413 2.631-2.631 4.95-5.543 6.959-8.649 9.083 6.453 19.765 9.693 30.453 9.693 13.477 0 26.952-5.129 37.212-15.388 3.881-3.881 7.102-8.347 9.585-13.186 9.059 6.821 20.027 10.516 31.567 10.516 14.056 0 27.271-5.474 37.21-15.413s15.413-23.154 15.413-37.21c0-.856-.022-1.708-.062-2.558 11.963 12.688 27.193 25.382 44.635 32.246 1.2.473 2.439.697 3.659.697 3.829 0 7.469-2.213 9.127-5.909 11.57-25.789 15.599-48.666 11.974-67.217 21.98.375 64.102-2.126 103.888-22.505 2.516-1.289 4.369-3.582 5.101-6.312s.271-5.644-1.263-8.018zm-379.338 2.253c6.359-6.36 14.714-9.54 23.068-9.54s16.709 3.18 23.068 9.54c12.72 12.721 12.72 33.418 0 46.138-6.162 6.162-14.354 9.555-23.068 9.555s-16.906-3.394-23.068-9.556c-12.72-12.719-12.72-33.416 0-46.137zm-6.991-56.806c.006.111.018.22.024.33-.062-.083-.129-.163-.192-.245.056-.028.112-.056.168-.085zm109.818 110.091c-.056-.042-.111-.087-.167-.129.075.004.149.012.224.016-.019.037-.038.075-.057.113zm4.32-20.084c-8.929.375-17.777-2.938-24.385-9.545-12.72-12.72-12.72-33.417 0-46.137 5.305-5.305 12.175-8.516 19.397-9.337-8.628 21.108-7.087 41.925 4.988 65.019zm-61.596-125.517c8.714 0 16.906 3.394 23.068 9.555 12.72 12.72 12.72 33.417 0 46.137-12.719 12.721-33.418 12.72-46.137 0-6.162-6.162-9.556-14.354-9.556-23.068s3.394-16.907 9.556-23.069c6.163-6.162 14.355-9.555 23.069-9.555zm-99.803 11.868c-12.72-12.72-12.72-33.417 0-46.137 12.719-12.719 33.416-12.721 46.137 0 12.72 12.72 12.72 33.417 0 46.137-4.559 4.559-10.181 7.58-16.395 8.859-8.271-4.404-17.476-6.44-26.617-6.12-1.094-.848-2.143-1.758-3.125-2.739zm-18.084 32.225c6.359-6.36 14.714-9.54 23.068-9.54s16.709 3.18 23.068 9.54c6.162 6.162 9.556 14.354 9.556 23.069 0 8.714-3.394 16.906-9.556 23.068-6.161 6.162-14.354 9.555-23.068 9.555s-16.906-3.394-23.068-9.556c-12.72-12.719-12.72-33.416 0-46.136zm-14.344 74.624c2.839-2.839 6.181-5.119 9.817-6.739 8.216 5.08 17.694 7.807 27.595 7.807 3.049 0 6.055-.273 9-.778 5.983 6.128 9.279 14.198 9.279 22.778 0 8.714-3.394 16.906-9.556 23.068s-14.354 9.555-23.068 9.556c-8.714 0-16.905-3.394-23.067-9.556-12.719-12.719-12.719-33.416 0-46.136zm8.245 130.797c-8.714 0-16.906-3.394-23.068-9.556-12.721-12.72-12.721-33.417-.001-46.137 3.034-3.034 6.626-5.431 10.546-7.062 8.158 4.981 17.546 7.65 27.348 7.65 2.769 0 5.504-.221 8.19-.638.018.018.037.033.055.051.027.027.051.057.078.083-1.883 12.094.448 24.716 6.992 35.486-1.631 3.928-4.032 7.527-7.071 10.567-6.164 6.162-14.356 9.556-23.069 9.556zm75.103-14.825c-8.714 0-16.906-3.394-23.068-9.556-12.72-12.72-12.72-33.417 0-46.137 12.633-12.635 33.134-12.712 45.873-.251-2.136 12.434.201 25.486 7.011 36.552-1.62 3.644-3.903 6.992-6.747 9.836-6.163 6.162-14.355 9.556-23.069 9.556zm51.556-23.899c-12.72-12.72-12.72-33.417 0-46.137 12.718-12.719 33.415-12.721 46.137 0 .972.972 1.874 2.01 2.716 3.094-.022.629-.046 1.257-.046 1.89 0 8.793 2.143 17.256 6.18 24.795-1.285 6.198-4.301 11.808-8.85 16.357-12.721 12.72-33.418 12.719-46.137.001zm124.499-18.084c-6.162 6.162-14.354 9.555-23.067 9.555-8.714 0-16.906-3.394-23.068-9.556s-9.556-14.354-9.556-23.068c0-7.06 2.229-13.777 6.352-19.35 6.399 8.249 13.953 16.842 22.689 25.874 3.429 3.546 8.934 4.062 12.963 1.212 6.91-4.889 14.288-12.445 20.403-21.068 1.856 4.14 2.84 8.66 2.84 13.333-.001 8.714-3.394 16.906-9.556 23.068zm85.894-86.54c-3.674-.435-7.288 1.196-9.396 4.239-2.105 3.043-2.359 7-.659 10.287 8.272 15.988 3.623 37.772-3.253 55.803-31.102-17.335-53.587-56.202-53.828-56.623-1.801-3.163-5.143-5.052-8.688-5.052-.626 0-1.26.059-1.892.181-4.206.81-7.43 4.208-8.017 8.45-1.417 10.25-10.034 23.352-18.847 32.022-8.661-9.395-15.731-18.083-21.297-26.199-.006-.009-.011-.018-.018-.027-.001-.002-.003-.003-.004-.005-9.19-13.408-14.271-25.254-15.618-36.141-1.972-15.938 4.023-31.562 19.343-50.09l48.928 13.111c.866.232 1.737.343 2.594.343 4.416 0 8.456-2.947 9.653-7.414 1.43-5.335-1.736-10.818-7.071-12.248l-48.919-13.108c-4.001-23.701-1.391-40.238 8.285-53.053 10.615-14.061 30.804-25.449 63.174-35.548 3.296 11.915 4.208 27.571.311 37.156-1.613 3.967-.521 8.522 2.717 11.326s7.9 3.234 11.598 1.072c.424-.249 39.24-22.699 74.929-22.127-3.062 19.056-9.927 40.248-25.085 49.958-3.116 1.996-4.876 5.55-4.573 9.238s2.618 6.908 6.018 8.37c.487.209 45.754 20.015 76.93 61.382-47.535 20.15-96.797 14.756-97.315 14.697z"/><path d="m364.893 269.438-.008-.002c-5.36-1.339-10.783 1.919-12.123 7.277s1.922 10.788 7.279 12.127c.814.204 1.63.301 2.434.301 4.48 0 8.558-3.034 9.693-7.577 1.34-5.358-1.918-10.787-7.275-12.126z"/><path d="m145.852 85.603c.863.23 1.729.34 2.583.34 4.419 0 8.463-2.953 9.655-7.426l.002-.007c1.423-5.336-1.75-10.812-7.087-12.235-5.331-1.422-10.816 1.753-12.239 7.089s1.749 10.816 7.086 12.239z"/></svg>