<svg height="511pt" viewBox="-28 0 511 511.99964" width="511pt" xmlns="http://www.w3.org/2000/svg"><path d="m172.890625 381.933594 17.113281-70.21875-36.804687-21.25-11.226563-6.480469-48.832031 46.664063c-13.738281 13.125-20.542969 31.921874-18.386719 50.800781 2.183594 19.128906 13.304688 36.089843 29.976563 45.714843l.953125.546876c10.867187 1.480468 22.078125.035156 32.402344-4.453126 17.425781-7.570312 30.304687-22.863281 34.804687-41.324218zm0 0" fill="#c9f3ff"/><path d="m455.257812 18.992188h-75.230468s-67.765625 59.917968-67.765625 147.269531c0 52.519531-22.097657 83.589843-39.71875 100.015625-9.117188 8.503906-7.074219 23.476562 4.109375 28.992187 15.75 7.761719 32.964844 15.015625 32.964844 19.925781v25.972657c0 4.53125-.875 9.019531-2.582032 13.21875l-3.023437 7.449219c-2.597657 6.390624-1.566407 13.6875 2.699219 19.109374l2.152343 2.738282v6.882812c0 5.777344 3.449219 10.996094 8.761719 13.265625l.527344.222657v21.046874c0 14.042969 6.664062 26.519532 16.996094 34.464844h12.039062c11.488281 0 22.539062 3.207032 32.046875 9h12.953125c21.0625 0 40.667969 10.761719 51.976562 28.535156l3.117188 4.898438h7.976562zm0 0" fill="#fccf9d"/><path d="m172.613281 382.933594c-4.558593-1.796875-9.449219-4.414063-14.496093-8.164063-10.964844-1.320312-26.570313-6.957031-42.050782-25.417969-4.621094-5.511718-9.25-9.84375-13.761718-13.25-9.492188-1.054687-15.703126 1.140626-15.703126 1.140626l-1.347656.582031c-9.390625 12.359375-13.789062 27.960937-12 43.625 2.183594 19.128906 13.304688 36.089843 29.976563 45.714843l.449219.257813c11.484374 1.957031 23.445312.601563 34.40625-4.164063 17.109374-7.433593 29.8125-22.316406 34.527343-40.324218zm0 0" fill="#ff5d5d"/><path d="m195.003906 303.054688-73.609375-42.5c-3.847656-2.21875-8.695312-1.636719-11.910156 1.429687l-52.253906 49.933594c-15.902344 15.195312-23.910157 37.3125-21.414063 59.164062 2.320313 20.34375 13.5 38.769531 30.253906 50.292969l-28.375 49.148438-22.195312-12.8125c-4.78125-2.761719-10.898438-1.121094-13.660156 3.660156-2.761719 4.785156-1.121094 10.898437 3.660156 13.660156l30.84375 17.808594c.003906 0 .007812.003906.011719.003906 0 .003906.003906.003906.007812.003906l30.84375 17.808594c1.578125.910156 3.296875 1.34375 4.992188 1.34375 3.457031 0 6.816406-1.792969 8.667969-5.003906 2.761718-4.78125 1.125-10.898438-3.660157-13.660156l-22.191406-12.8125 28.378906-49.152344c9.585938 4.570312 20.039063 6.886718 30.523438 6.886718 9.582031 0 19.183593-1.929687 28.15625-5.828124 20.167969-8.765626 35.320312-26.757813 40.53125-48.125l17.113281-70.222657c1.050781-4.316406-.867188-8.808593-4.714844-11.027343zm-60.902344 111.03125c-14.6875 6.382812-31.730468 5.414062-45.59375-2.589844l-7.777343-4.492188c-13.867188-8.003906-23.226563-22.28125-25.042969-38.1875-1.371094-12 1.6875-24.101562 8.308594-34.011718 5.667968-1.113282 24.648437-2.59375 44.40625 20.96875 19.613281 23.394531 39.894531 28.757812 53.09375 29.273437-4.761719 12.890625-14.6875 23.515625-27.394532 29.039063zm32.621094-49.082032c-7.269531.683594-24.832031-.417968-42.996094-22.078125-14.515624-17.316406-29.386718-24.554687-41.503906-27.226562l35.660156-34.074219 60.628907 35.003906zm0 0"/><path d="m416.441406 496.628906-8.84375-13.898437c-13.214844-20.765625-35.796875-33.160157-60.410156-33.160157h-30.566406c-18.457032 0-33.46875-15.015624-33.46875-33.46875v-21.046874c0-4.007813-2.390625-7.625-6.074219-9.199219l-.53125-.226563c-1.628906-.695312-2.683594-2.289062-2.683594-4.0625v-6.882812c0-2.242188-.753906-4.421875-2.140625-6.183594l-2.152344-2.738281c-2.042968-2.59375-2.539062-6.105469-1.296874-9.164063l3.027343-7.445312c2.199219-5.421875 3.316407-11.136719 3.316407-16.984375v-25.972657c0-10.371093-11.507813-15.890624-30.570313-25.035156-2.640625-1.269531-5.328125-2.558594-7.972656-3.863281-2.285157-1.125-3.808594-3.214844-4.179688-5.734375-.386719-2.609375.515625-5.148438 2.464844-6.96875 19.570313-18.246094 42.898437-51.675781 42.898437-107.332031 0-47.878907 21.691407-87.273438 39.890626-111.890625 3.28125-4.441406 2.34375-10.703125-2.097657-13.984375-4.4375-3.285157-10.703125-2.34375-13.984375 2.097656-19.984375 27.03125-43.808594 70.453125-43.808594 123.777344 0 48.46875-19.867187 77.164062-36.535156 92.703125-6.730468 6.269531-9.953125 15.4375-8.613281 24.511718 1.320313 8.984376 6.972656 16.746094 15.121094 20.761719 2.710937 1.335938 5.460937 2.65625 8.164062 3.953125 6.335938 3.039063 15.476563 7.425782 19.222657 10.070313v22.90625c0 3.257812-.621094 6.4375-1.847657 9.457031l-3.027343 7.445312c-3.9375 9.699219-2.363282 20.832032 4.105468 29.058594l.015625 3.4375c0 7.605469 3.503907 14.617188 9.289063 19.171875v15.363281c0 29.480469 23.984375 53.46875 53.464844 53.46875h30.570312c17.738281 0 34.011719 8.933594 43.539062 23.898438l8.84375 13.898438c1.90625 2.996093 5.140626 4.632812 8.445313 4.632812 1.835937 0 3.695313-.503906 5.359375-1.5625 4.660156-2.96875 6.035156-9.148438 3.066406-13.808594zm0 0"/><path d="m334.566406 20.410156c2.414063 0 4.832032-.867187 6.753906-2.628906l.335938-.304688c4.128906-3.652343 4.511719-9.957031.863281-14.09375-3.648437-4.140624-9.972656-4.53125-14.113281-.886718 0 0-.207031.179687-.597656.539062-4.070313 3.730469-4.347656 10.058594-.617188 14.128906 1.972656 2.152344 4.667969 3.246094 7.375 3.246094zm0 0"/></svg>